<mxfile host="app.diagrams.net" modified="2020-03-19T02:10:55.636Z" agent="Mozilla/5.0 (Macintosh; Intel Mac OS X 10_15_3) AppleWebKit/537.36 (KHTML, like Gecko) Chrome/80.0.3987.132 Safari/537.36" etag="4RQrm68iCs3NkXKrh5nJ" version="12.8.8" type="github">
  <diagram id="C5RBs43oDa-KdzZeNtuy" name="Page-1">
    <mxGraphModel dx="1502" dy="903" grid="1" gridSize="10" guides="1" tooltips="1" connect="1" arrows="1" fold="1" page="1" pageScale="1" pageWidth="1169" pageHeight="1654" math="0" shadow="0">
      <root>
        <mxCell id="WIyWlLk6GJQsqaUBKTNV-0" />
        <mxCell id="WIyWlLk6GJQsqaUBKTNV-1" parent="WIyWlLk6GJQsqaUBKTNV-0" />
        <mxCell id="l047TGfd24se4dwEgZ4c-3" value="" style="edgeStyle=orthogonalEdgeStyle;rounded=0;orthogonalLoop=1;jettySize=auto;html=1;" edge="1" parent="WIyWlLk6GJQsqaUBKTNV-1" source="WIyWlLk6GJQsqaUBKTNV-3" target="l047TGfd24se4dwEgZ4c-4">
          <mxGeometry relative="1" as="geometry">
            <mxPoint x="220" y="270" as="targetPoint" />
          </mxGeometry>
        </mxCell>
        <mxCell id="WIyWlLk6GJQsqaUBKTNV-3" value="arrivalDay ← 0&lt;br&gt;arrivalHour ← 0&lt;br&gt;customerStayHour ← 0&lt;br&gt;departHour ← 0&lt;br&gt;maxStayHour ← [8,2,2,2,2,2,4]" style="rounded=1;whiteSpace=wrap;html=1;fontSize=12;glass=0;strokeWidth=1;shadow=0;" parent="WIyWlLk6GJQsqaUBKTNV-1" vertex="1">
          <mxGeometry x="145" y="120" width="150" height="100" as="geometry" />
        </mxCell>
        <mxCell id="l047TGfd24se4dwEgZ4c-1" style="edgeStyle=orthogonalEdgeStyle;rounded=0;orthogonalLoop=1;jettySize=auto;html=1;entryX=0.5;entryY=0;entryDx=0;entryDy=0;" edge="1" parent="WIyWlLk6GJQsqaUBKTNV-1" source="l047TGfd24se4dwEgZ4c-0" target="WIyWlLk6GJQsqaUBKTNV-3">
          <mxGeometry relative="1" as="geometry" />
        </mxCell>
        <mxCell id="l047TGfd24se4dwEgZ4c-0" value="Start" style="ellipse;whiteSpace=wrap;html=1;" vertex="1" parent="WIyWlLk6GJQsqaUBKTNV-1">
          <mxGeometry x="160" y="50" width="120" height="50" as="geometry" />
        </mxCell>
        <mxCell id="l047TGfd24se4dwEgZ4c-6" value="" style="edgeStyle=orthogonalEdgeStyle;rounded=0;orthogonalLoop=1;jettySize=auto;html=1;entryX=0.5;entryY=0;entryDx=0;entryDy=0;" edge="1" parent="WIyWlLk6GJQsqaUBKTNV-1" source="l047TGfd24se4dwEgZ4c-4" target="l047TGfd24se4dwEgZ4c-9">
          <mxGeometry relative="1" as="geometry">
            <mxPoint x="220" y="380" as="targetPoint" />
          </mxGeometry>
        </mxCell>
        <mxCell id="l047TGfd24se4dwEgZ4c-4" value="INPUT arrivalDay&lt;br&gt;INPUT arrivalHour&lt;br&gt;INPUT&amp;nbsp;customerStayHour" style="shape=parallelogram;perimeter=parallelogramPerimeter;whiteSpace=wrap;html=1;" vertex="1" parent="WIyWlLk6GJQsqaUBKTNV-1">
          <mxGeometry x="140" y="270" width="160" height="50" as="geometry" />
        </mxCell>
        <mxCell id="l047TGfd24se4dwEgZ4c-10" style="edgeStyle=orthogonalEdgeStyle;rounded=0;orthogonalLoop=1;jettySize=auto;html=1;exitX=0;exitY=0.5;exitDx=0;exitDy=0;" edge="1" parent="WIyWlLk6GJQsqaUBKTNV-1" source="l047TGfd24se4dwEgZ4c-9">
          <mxGeometry relative="1" as="geometry">
            <mxPoint x="220" y="250" as="targetPoint" />
            <Array as="points">
              <mxPoint x="120" y="380" />
              <mxPoint x="120" y="250" />
            </Array>
          </mxGeometry>
        </mxCell>
        <mxCell id="l047TGfd24se4dwEgZ4c-11" value="No" style="text;html=1;align=center;verticalAlign=middle;resizable=0;points=[];labelBackgroundColor=#ffffff;" vertex="1" connectable="0" parent="l047TGfd24se4dwEgZ4c-10">
          <mxGeometry x="-0.7143" y="-29" relative="1" as="geometry">
            <mxPoint x="17" y="29" as="offset" />
          </mxGeometry>
        </mxCell>
        <mxCell id="l047TGfd24se4dwEgZ4c-28" style="edgeStyle=orthogonalEdgeStyle;rounded=0;orthogonalLoop=1;jettySize=auto;html=1;entryX=0.5;entryY=0;entryDx=0;entryDy=0;" edge="1" parent="WIyWlLk6GJQsqaUBKTNV-1" source="l047TGfd24se4dwEgZ4c-9" target="l047TGfd24se4dwEgZ4c-15">
          <mxGeometry relative="1" as="geometry" />
        </mxCell>
        <mxCell id="l047TGfd24se4dwEgZ4c-29" value="Yes" style="text;html=1;align=center;verticalAlign=middle;resizable=0;points=[];labelBackgroundColor=#ffffff;" vertex="1" connectable="0" parent="l047TGfd24se4dwEgZ4c-28">
          <mxGeometry x="-0.1286" y="2" relative="1" as="geometry">
            <mxPoint as="offset" />
          </mxGeometry>
        </mxCell>
        <mxCell id="l047TGfd24se4dwEgZ4c-9" value="&lt;span style=&quot;white-space: normal&quot;&gt;Is&amp;nbsp;arrivalDay &amp;gt;=1 AND &amp;lt;=7?&lt;/span&gt;" style="rhombus;whiteSpace=wrap;html=1;" vertex="1" parent="WIyWlLk6GJQsqaUBKTNV-1">
          <mxGeometry x="160" y="340" width="120" height="80" as="geometry" />
        </mxCell>
        <mxCell id="l047TGfd24se4dwEgZ4c-17" style="edgeStyle=orthogonalEdgeStyle;rounded=0;orthogonalLoop=1;jettySize=auto;html=1;exitX=0;exitY=0.5;exitDx=0;exitDy=0;" edge="1" parent="WIyWlLk6GJQsqaUBKTNV-1" source="l047TGfd24se4dwEgZ4c-15">
          <mxGeometry relative="1" as="geometry">
            <mxPoint x="220" y="250" as="targetPoint" />
            <Array as="points">
              <mxPoint x="120" y="490" />
              <mxPoint x="120" y="250" />
            </Array>
          </mxGeometry>
        </mxCell>
        <mxCell id="l047TGfd24se4dwEgZ4c-19" value="No" style="text;html=1;align=center;verticalAlign=middle;resizable=0;points=[];labelBackgroundColor=#ffffff;" vertex="1" connectable="0" parent="l047TGfd24se4dwEgZ4c-17">
          <mxGeometry x="-0.8222" y="-25" relative="1" as="geometry">
            <mxPoint x="4.2900000000000205" y="25" as="offset" />
          </mxGeometry>
        </mxCell>
        <mxCell id="l047TGfd24se4dwEgZ4c-21" style="edgeStyle=orthogonalEdgeStyle;rounded=0;orthogonalLoop=1;jettySize=auto;html=1;entryX=0.5;entryY=0;entryDx=0;entryDy=0;" edge="1" parent="WIyWlLk6GJQsqaUBKTNV-1" source="l047TGfd24se4dwEgZ4c-15" target="l047TGfd24se4dwEgZ4c-25">
          <mxGeometry relative="1" as="geometry">
            <mxPoint x="220.0000000000001" y="569.9999999999999" as="targetPoint" />
          </mxGeometry>
        </mxCell>
        <mxCell id="l047TGfd24se4dwEgZ4c-22" value="Yes" style="text;html=1;align=center;verticalAlign=middle;resizable=0;points=[];labelBackgroundColor=#ffffff;" vertex="1" connectable="0" parent="l047TGfd24se4dwEgZ4c-21">
          <mxGeometry x="-0.45" y="-1" relative="1" as="geometry">
            <mxPoint as="offset" />
          </mxGeometry>
        </mxCell>
        <mxCell id="l047TGfd24se4dwEgZ4c-15" value="Is arrivalHour &amp;gt;=8 AND &amp;lt;=24?" style="rhombus;whiteSpace=wrap;html=1;" vertex="1" parent="WIyWlLk6GJQsqaUBKTNV-1">
          <mxGeometry x="160" y="450" width="120" height="80" as="geometry" />
        </mxCell>
        <mxCell id="l047TGfd24se4dwEgZ4c-32" style="edgeStyle=orthogonalEdgeStyle;rounded=0;orthogonalLoop=1;jettySize=auto;html=1;entryX=0.5;entryY=0;entryDx=0;entryDy=0;" edge="1" parent="WIyWlLk6GJQsqaUBKTNV-1" source="l047TGfd24se4dwEgZ4c-25" target="l047TGfd24se4dwEgZ4c-30">
          <mxGeometry relative="1" as="geometry" />
        </mxCell>
        <mxCell id="l047TGfd24se4dwEgZ4c-34" value="Yes" style="text;html=1;align=center;verticalAlign=middle;resizable=0;points=[];labelBackgroundColor=#ffffff;" vertex="1" connectable="0" parent="l047TGfd24se4dwEgZ4c-32">
          <mxGeometry x="0.2002" y="-3" relative="1" as="geometry">
            <mxPoint x="2.99" y="-0.06000000000000005" as="offset" />
          </mxGeometry>
        </mxCell>
        <mxCell id="l047TGfd24se4dwEgZ4c-25" value="departHour ← arrivalHour + customerStayHour" style="rounded=1;whiteSpace=wrap;html=1;" vertex="1" parent="WIyWlLk6GJQsqaUBKTNV-1">
          <mxGeometry x="160" y="560" width="120" height="60" as="geometry" />
        </mxCell>
        <mxCell id="l047TGfd24se4dwEgZ4c-33" value="Yes" style="edgeStyle=orthogonalEdgeStyle;rounded=0;orthogonalLoop=1;jettySize=auto;html=1;entryX=0.5;entryY=0;entryDx=0;entryDy=0;" edge="1" parent="WIyWlLk6GJQsqaUBKTNV-1" source="l047TGfd24se4dwEgZ4c-30" target="l047TGfd24se4dwEgZ4c-31">
          <mxGeometry relative="1" as="geometry" />
        </mxCell>
        <mxCell id="l047TGfd24se4dwEgZ4c-35" value="No" style="edgeStyle=orthogonalEdgeStyle;rounded=0;orthogonalLoop=1;jettySize=auto;html=1;" edge="1" parent="WIyWlLk6GJQsqaUBKTNV-1" source="l047TGfd24se4dwEgZ4c-30">
          <mxGeometry x="-0.9478" relative="1" as="geometry">
            <mxPoint x="219.99999999999977" y="250" as="targetPoint" />
            <Array as="points">
              <mxPoint x="120" y="690" />
              <mxPoint x="120" y="250" />
            </Array>
            <mxPoint as="offset" />
          </mxGeometry>
        </mxCell>
        <mxCell id="l047TGfd24se4dwEgZ4c-30" value="Is&amp;nbsp;customerStayHour &amp;lt;= maxStayHour[arrivalDay]&amp;nbsp;" style="rhombus;whiteSpace=wrap;html=1;" vertex="1" parent="WIyWlLk6GJQsqaUBKTNV-1">
          <mxGeometry x="155" y="650" width="130" height="80" as="geometry" />
        </mxCell>
        <mxCell id="l047TGfd24se4dwEgZ4c-36" style="edgeStyle=orthogonalEdgeStyle;rounded=0;orthogonalLoop=1;jettySize=auto;html=1;exitX=0;exitY=0.5;exitDx=0;exitDy=0;" edge="1" parent="WIyWlLk6GJQsqaUBKTNV-1" source="l047TGfd24se4dwEgZ4c-31">
          <mxGeometry relative="1" as="geometry">
            <mxPoint x="219.99999999999977" y="250" as="targetPoint" />
            <Array as="points">
              <mxPoint x="120" y="790" />
              <mxPoint x="120" y="250" />
            </Array>
          </mxGeometry>
        </mxCell>
        <mxCell id="l047TGfd24se4dwEgZ4c-37" value="No" style="text;html=1;align=center;verticalAlign=middle;resizable=0;points=[];labelBackgroundColor=#ffffff;" vertex="1" connectable="0" parent="l047TGfd24se4dwEgZ4c-36">
          <mxGeometry x="-0.9017" y="-20" relative="1" as="geometry">
            <mxPoint x="18.33" y="20" as="offset" />
          </mxGeometry>
        </mxCell>
        <mxCell id="l047TGfd24se4dwEgZ4c-39" style="edgeStyle=orthogonalEdgeStyle;rounded=0;orthogonalLoop=1;jettySize=auto;html=1;entryX=0.5;entryY=0;entryDx=0;entryDy=0;" edge="1" parent="WIyWlLk6GJQsqaUBKTNV-1" source="l047TGfd24se4dwEgZ4c-31" target="l047TGfd24se4dwEgZ4c-38">
          <mxGeometry relative="1" as="geometry" />
        </mxCell>
        <mxCell id="l047TGfd24se4dwEgZ4c-31" value="Is&amp;nbsp;departHour &amp;lt;24" style="rhombus;whiteSpace=wrap;html=1;" vertex="1" parent="WIyWlLk6GJQsqaUBKTNV-1">
          <mxGeometry x="155" y="760" width="130" height="60" as="geometry" />
        </mxCell>
        <mxCell id="l047TGfd24se4dwEgZ4c-41" style="edgeStyle=orthogonalEdgeStyle;rounded=0;orthogonalLoop=1;jettySize=auto;html=1;" edge="1" parent="WIyWlLk6GJQsqaUBKTNV-1" source="l047TGfd24se4dwEgZ4c-38" target="l047TGfd24se4dwEgZ4c-40">
          <mxGeometry relative="1" as="geometry" />
        </mxCell>
        <mxCell id="l047TGfd24se4dwEgZ4c-38" value="INPUT customerFPNChoice" style="shape=parallelogram;perimeter=parallelogramPerimeter;whiteSpace=wrap;html=1;" vertex="1" parent="WIyWlLk6GJQsqaUBKTNV-1">
          <mxGeometry x="160" y="860" width="120" height="40" as="geometry" />
        </mxCell>
        <mxCell id="l047TGfd24se4dwEgZ4c-43" style="edgeStyle=orthogonalEdgeStyle;rounded=0;orthogonalLoop=1;jettySize=auto;html=1;entryX=0;entryY=0.5;entryDx=0;entryDy=0;" edge="1" parent="WIyWlLk6GJQsqaUBKTNV-1" source="l047TGfd24se4dwEgZ4c-40" target="l047TGfd24se4dwEgZ4c-42">
          <mxGeometry relative="1" as="geometry" />
        </mxCell>
        <mxCell id="l047TGfd24se4dwEgZ4c-48" value="No" style="text;html=1;align=center;verticalAlign=middle;resizable=0;points=[];labelBackgroundColor=#ffffff;" vertex="1" connectable="0" parent="l047TGfd24se4dwEgZ4c-43">
          <mxGeometry x="0.1325" relative="1" as="geometry">
            <mxPoint x="-19.44" as="offset" />
          </mxGeometry>
        </mxCell>
        <mxCell id="l047TGfd24se4dwEgZ4c-65" style="edgeStyle=orthogonalEdgeStyle;rounded=0;orthogonalLoop=1;jettySize=auto;html=1;entryX=0.5;entryY=0;entryDx=0;entryDy=0;" edge="1" parent="WIyWlLk6GJQsqaUBKTNV-1" source="l047TGfd24se4dwEgZ4c-40" target="l047TGfd24se4dwEgZ4c-66">
          <mxGeometry relative="1" as="geometry">
            <mxPoint x="220" y="1050" as="targetPoint" />
          </mxGeometry>
        </mxCell>
        <mxCell id="l047TGfd24se4dwEgZ4c-40" value="Is&amp;nbsp;customerFPNChoice = FALSE?" style="rhombus;whiteSpace=wrap;html=1;" vertex="1" parent="WIyWlLk6GJQsqaUBKTNV-1">
          <mxGeometry x="150" y="930" width="140" height="70" as="geometry" />
        </mxCell>
        <mxCell id="l047TGfd24se4dwEgZ4c-42" value="INPUT freqParkingNum" style="shape=parallelogram;perimeter=parallelogramPerimeter;whiteSpace=wrap;html=1;" vertex="1" parent="WIyWlLk6GJQsqaUBKTNV-1">
          <mxGeometry x="330" y="947.5" width="120" height="35" as="geometry" />
        </mxCell>
        <mxCell id="l047TGfd24se4dwEgZ4c-46" style="edgeStyle=orthogonalEdgeStyle;rounded=0;orthogonalLoop=1;jettySize=auto;html=1;" edge="1" parent="WIyWlLk6GJQsqaUBKTNV-1" source="l047TGfd24se4dwEgZ4c-44">
          <mxGeometry relative="1" as="geometry">
            <mxPoint x="320" y="965" as="targetPoint" />
            <Array as="points">
              <mxPoint x="530" y="900" />
              <mxPoint x="320" y="900" />
            </Array>
          </mxGeometry>
        </mxCell>
        <mxCell id="l047TGfd24se4dwEgZ4c-47" value="NO" style="text;html=1;align=center;verticalAlign=middle;resizable=0;points=[];labelBackgroundColor=#ffffff;" vertex="1" connectable="0" parent="l047TGfd24se4dwEgZ4c-46">
          <mxGeometry x="-0.2581" y="-2" relative="1" as="geometry">
            <mxPoint x="85.97" y="12" as="offset" />
          </mxGeometry>
        </mxCell>
        <mxCell id="l047TGfd24se4dwEgZ4c-50" style="edgeStyle=orthogonalEdgeStyle;rounded=0;orthogonalLoop=1;jettySize=auto;html=1;entryX=0;entryY=0.5;entryDx=0;entryDy=0;" edge="1" parent="WIyWlLk6GJQsqaUBKTNV-1" source="l047TGfd24se4dwEgZ4c-44" target="l047TGfd24se4dwEgZ4c-49">
          <mxGeometry relative="1" as="geometry" />
        </mxCell>
        <mxCell id="l047TGfd24se4dwEgZ4c-51" value="Yes" style="text;html=1;align=center;verticalAlign=middle;resizable=0;points=[];labelBackgroundColor=#ffffff;" vertex="1" connectable="0" parent="l047TGfd24se4dwEgZ4c-50">
          <mxGeometry x="-0.1922" y="2" relative="1" as="geometry">
            <mxPoint y="1" as="offset" />
          </mxGeometry>
        </mxCell>
        <mxCell id="l047TGfd24se4dwEgZ4c-44" value="Is&amp;nbsp;freqParkingNum &amp;gt;=0 AND &amp;lt;=99999" style="rhombus;whiteSpace=wrap;html=1;" vertex="1" parent="WIyWlLk6GJQsqaUBKTNV-1">
          <mxGeometry x="475" y="925" width="110" height="80" as="geometry" />
        </mxCell>
        <mxCell id="l047TGfd24se4dwEgZ4c-45" value="" style="endArrow=classic;html=1;exitX=1;exitY=0.5;exitDx=0;exitDy=0;entryX=0;entryY=0.5;entryDx=0;entryDy=0;" edge="1" parent="WIyWlLk6GJQsqaUBKTNV-1" source="l047TGfd24se4dwEgZ4c-42" target="l047TGfd24se4dwEgZ4c-44">
          <mxGeometry width="50" height="50" relative="1" as="geometry">
            <mxPoint x="430" y="990" as="sourcePoint" />
            <mxPoint x="480" y="940" as="targetPoint" />
          </mxGeometry>
        </mxCell>
        <mxCell id="l047TGfd24se4dwEgZ4c-63" style="edgeStyle=orthogonalEdgeStyle;rounded=0;orthogonalLoop=1;jettySize=auto;html=1;entryX=0;entryY=0.5;entryDx=0;entryDy=0;" edge="1" parent="WIyWlLk6GJQsqaUBKTNV-1" source="l047TGfd24se4dwEgZ4c-52" target="l047TGfd24se4dwEgZ4c-54">
          <mxGeometry relative="1" as="geometry" />
        </mxCell>
        <mxCell id="l047TGfd24se4dwEgZ4c-52" value="&lt;div&gt;digit ← checkDigitNum MOD 10&lt;/div&gt;&lt;div&gt;&lt;span&gt;checkDigitSum ← checkDigitSum + digit * count&lt;/span&gt;&lt;/div&gt;&lt;div&gt;checkDigitNum ← checkDigitNum / 10&lt;/div&gt;" style="rounded=1;whiteSpace=wrap;html=1;" vertex="1" parent="WIyWlLk6GJQsqaUBKTNV-1">
          <mxGeometry x="790" y="927.5" width="180" height="80" as="geometry" />
        </mxCell>
        <mxCell id="l047TGfd24se4dwEgZ4c-64" style="edgeStyle=orthogonalEdgeStyle;rounded=0;orthogonalLoop=1;jettySize=auto;html=1;entryX=0.5;entryY=0;entryDx=0;entryDy=0;" edge="1" parent="WIyWlLk6GJQsqaUBKTNV-1" source="l047TGfd24se4dwEgZ4c-54" target="l047TGfd24se4dwEgZ4c-58">
          <mxGeometry relative="1" as="geometry" />
        </mxCell>
        <mxCell id="l047TGfd24se4dwEgZ4c-70" value="Yes" style="text;html=1;align=center;verticalAlign=middle;resizable=0;points=[];labelBackgroundColor=#ffffff;" vertex="1" connectable="0" parent="l047TGfd24se4dwEgZ4c-64">
          <mxGeometry x="-0.1368" relative="1" as="geometry">
            <mxPoint as="offset" />
          </mxGeometry>
        </mxCell>
        <mxCell id="l047TGfd24se4dwEgZ4c-68" style="edgeStyle=orthogonalEdgeStyle;rounded=0;orthogonalLoop=1;jettySize=auto;html=1;" edge="1" parent="WIyWlLk6GJQsqaUBKTNV-1" source="l047TGfd24se4dwEgZ4c-54">
          <mxGeometry relative="1" as="geometry">
            <mxPoint x="770" y="967.5" as="targetPoint" />
            <Array as="points">
              <mxPoint x="1065" y="900" />
              <mxPoint x="770" y="900" />
            </Array>
          </mxGeometry>
        </mxCell>
        <mxCell id="l047TGfd24se4dwEgZ4c-69" value="No" style="text;html=1;align=center;verticalAlign=middle;resizable=0;points=[];labelBackgroundColor=#ffffff;" vertex="1" connectable="0" parent="l047TGfd24se4dwEgZ4c-68">
          <mxGeometry x="-0.2257" y="-2" relative="1" as="geometry">
            <mxPoint x="114.05" y="27" as="offset" />
          </mxGeometry>
        </mxCell>
        <mxCell id="l047TGfd24se4dwEgZ4c-54" value="Is digit &amp;lt;=0?" style="rhombus;whiteSpace=wrap;html=1;" vertex="1" parent="WIyWlLk6GJQsqaUBKTNV-1">
          <mxGeometry x="1010" y="942.5" width="110" height="50" as="geometry" />
        </mxCell>
        <mxCell id="l047TGfd24se4dwEgZ4c-67" style="edgeStyle=orthogonalEdgeStyle;rounded=0;orthogonalLoop=1;jettySize=auto;html=1;" edge="1" parent="WIyWlLk6GJQsqaUBKTNV-1" source="l047TGfd24se4dwEgZ4c-58">
          <mxGeometry relative="1" as="geometry">
            <mxPoint x="230" y="1055" as="targetPoint" />
          </mxGeometry>
        </mxCell>
        <mxCell id="l047TGfd24se4dwEgZ4c-71" value="Yes" style="text;html=1;align=center;verticalAlign=middle;resizable=0;points=[];labelBackgroundColor=#ffffff;" vertex="1" connectable="0" parent="l047TGfd24se4dwEgZ4c-67">
          <mxGeometry x="-0.894" relative="1" as="geometry">
            <mxPoint as="offset" />
          </mxGeometry>
        </mxCell>
        <mxCell id="l047TGfd24se4dwEgZ4c-58" value="Is checkDigitSum MOD 11 = 0?" style="rhombus;whiteSpace=wrap;html=1;" vertex="1" parent="WIyWlLk6GJQsqaUBKTNV-1">
          <mxGeometry x="1010" y="1030" width="110" height="50" as="geometry" />
        </mxCell>
        <mxCell id="l047TGfd24se4dwEgZ4c-62" style="edgeStyle=orthogonalEdgeStyle;rounded=0;orthogonalLoop=1;jettySize=auto;html=1;entryX=0;entryY=0.5;entryDx=0;entryDy=0;" edge="1" parent="WIyWlLk6GJQsqaUBKTNV-1" source="l047TGfd24se4dwEgZ4c-49" target="l047TGfd24se4dwEgZ4c-52">
          <mxGeometry relative="1" as="geometry" />
        </mxCell>
        <mxCell id="l047TGfd24se4dwEgZ4c-49" value="checkDigitNum ← freqParkingNum" style="rounded=1;whiteSpace=wrap;html=1;" vertex="1" parent="WIyWlLk6GJQsqaUBKTNV-1">
          <mxGeometry x="640" y="947.5" width="120" height="40" as="geometry" />
        </mxCell>
        <mxCell id="l047TGfd24se4dwEgZ4c-66" value="Is&amp;nbsp;arrivalHour &amp;lt;16" style="rhombus;whiteSpace=wrap;html=1;" vertex="1" parent="WIyWlLk6GJQsqaUBKTNV-1">
          <mxGeometry x="180" y="1100" width="80" height="80" as="geometry" />
        </mxCell>
      </root>
    </mxGraphModel>
  </diagram>
</mxfile>
